<?xml version="1.0" standalone="no"?>
<svg width="660.7" height="660.7" version="1.1" xmlns="http://www.w3.org/2000/svg">
<rect x="324.3" y="84.3" width="12.0" height="12.0" fill="black" stroke-width="0"/>
<rect x="314.3" y="94.3" width="12.0" height="12.0" fill="black" stroke-width="0"/>
<rect x="304.3" y="104.3" width="12.0" height="12.0" fill="black" stroke-width="0"/>
<rect x="294.3" y="114.3" width="12.0" height="12.0" fill="black" stroke-width="0"/>
<rect x="284.3" y="124.3" width="12.0" height="12.0" fill="black" stroke-width="0"/>
<rect x="274.3" y="134.3" width="12.0" height="12.0" fill="black" stroke-width="0"/>
<rect x="264.3" y="144.3" width="12.0" height="12.0" fill="black" stroke-width="0"/>
<rect x="244.3" y="164.3" width="12.0" height="12.0" fill="black" stroke-width="0"/>
<rect x="214.3" y="194.3" width="12.0" height="12.0" fill="black" stroke-width="0"/>
<rect x="204.3" y="204.3" width="12.0" height="12.0" fill="black" stroke-width="0"/>
<rect x="194.3" y="214.3" width="12.0" height="12.0" fill="black" stroke-width="0"/>
<rect x="174.3" y="234.3" width="12.0" height="12.0" fill="black" stroke-width="0"/>
<rect x="144.3" y="264.3" width="12.0" height="12.0" fill="black" stroke-width="0"/>
<rect x="134.3" y="274.3" width="12.0" height="12.0" fill="black" stroke-width="0"/>
<rect x="124.3" y="284.3" width="12.0" height="12.0" fill="black" stroke-width="0"/>
<rect x="114.3" y="294.3" width="12.0" height="12.0" fill="black" stroke-width="0"/>
<rect x="104.3" y="304.3" width="12.0" height="12.0" fill="black" stroke-width="0"/>
<rect x="94.3" y="314.3" width="12.0" height="12.0" fill="black" stroke-width="0"/>
<rect x="84.3" y="324.3" width="12.0" height="12.0" fill="black" stroke-width="0"/>
<rect x="334.3" y="94.3" width="12.0" height="12.0" fill="black" stroke-width="0"/>
<rect x="274.3" y="154.3" width="12.0" height="12.0" fill="black" stroke-width="0"/>
<rect x="254.3" y="174.3" width="12.0" height="12.0" fill="black" stroke-width="0"/>
<rect x="244.3" y="184.3" width="12.0" height="12.0" fill="black" stroke-width="0"/>
<rect x="234.3" y="194.3" width="12.0" height="12.0" fill="black" stroke-width="0"/>
<rect x="214.3" y="214.3" width="12.0" height="12.0" fill="black" stroke-width="0"/>
<rect x="194.3" y="234.3" width="12.0" height="12.0" fill="black" stroke-width="0"/>
<rect x="174.3" y="254.3" width="12.0" height="12.0" fill="black" stroke-width="0"/>
<rect x="154.3" y="274.3" width="12.0" height="12.0" fill="black" stroke-width="0"/>
<rect x="94.3" y="334.3" width="12.0" height="12.0" fill="black" stroke-width="0"/>
<rect x="344.3" y="104.3" width="12.0" height="12.0" fill="black" stroke-width="0"/>
<rect x="324.3" y="124.3" width="12.0" height="12.0" fill="black" stroke-width="0"/>
<rect x="314.3" y="134.3" width="12.0" height="12.0" fill="black" stroke-width="0"/>
<rect x="304.3" y="144.3" width="12.0" height="12.0" fill="black" stroke-width="0"/>
<rect x="284.3" y="164.3" width="12.0" height="12.0" fill="black" stroke-width="0"/>
<rect x="244.3" y="204.3" width="12.0" height="12.0" fill="black" stroke-width="0"/>
<rect x="234.3" y="214.3" width="12.0" height="12.0" fill="black" stroke-width="0"/>
<rect x="224.3" y="224.3" width="12.0" height="12.0" fill="black" stroke-width="0"/>
<rect x="214.3" y="234.3" width="12.0" height="12.0" fill="black" stroke-width="0"/>
<rect x="204.3" y="244.3" width="12.0" height="12.0" fill="black" stroke-width="0"/>
<rect x="184.3" y="264.3" width="12.0" height="12.0" fill="black" stroke-width="0"/>
<rect x="164.3" y="284.3" width="12.0" height="12.0" fill="black" stroke-width="0"/>
<rect x="144.3" y="304.3" width="12.0" height="12.0" fill="black" stroke-width="0"/>
<rect x="134.3" y="314.3" width="12.0" height="12.0" fill="black" stroke-width="0"/>
<rect x="124.3" y="324.3" width="12.0" height="12.0" fill="black" stroke-width="0"/>
<rect x="104.3" y="344.3" width="12.0" height="12.0" fill="black" stroke-width="0"/>
<rect x="354.3" y="114.3" width="12.0" height="12.0" fill="black" stroke-width="0"/>
<rect x="334.3" y="134.3" width="12.0" height="12.0" fill="black" stroke-width="0"/>
<rect x="324.3" y="144.3" width="12.0" height="12.0" fill="black" stroke-width="0"/>
<rect x="314.3" y="154.3" width="12.0" height="12.0" fill="black" stroke-width="0"/>
<rect x="294.3" y="174.3" width="12.0" height="12.0" fill="black" stroke-width="0"/>
<rect x="254.3" y="214.3" width="12.0" height="12.0" fill="black" stroke-width="0"/>
<rect x="224.3" y="244.3" width="12.0" height="12.0" fill="black" stroke-width="0"/>
<rect x="214.3" y="254.3" width="12.0" height="12.0" fill="black" stroke-width="0"/>
<rect x="194.3" y="274.3" width="12.0" height="12.0" fill="black" stroke-width="0"/>
<rect x="174.3" y="294.3" width="12.0" height="12.0" fill="black" stroke-width="0"/>
<rect x="154.3" y="314.3" width="12.0" height="12.0" fill="black" stroke-width="0"/>
<rect x="144.3" y="324.3" width="12.0" height="12.0" fill="black" stroke-width="0"/>
<rect x="134.3" y="334.3" width="12.0" height="12.0" fill="black" stroke-width="0"/>
<rect x="114.3" y="354.3" width="12.0" height="12.0" fill="black" stroke-width="0"/>
<rect x="364.3" y="124.3" width="12.0" height="12.0" fill="black" stroke-width="0"/>
<rect x="344.3" y="144.3" width="12.0" height="12.0" fill="black" stroke-width="0"/>
<rect x="334.3" y="154.3" width="12.0" height="12.0" fill="black" stroke-width="0"/>
<rect x="324.3" y="164.3" width="12.0" height="12.0" fill="black" stroke-width="0"/>
<rect x="304.3" y="184.3" width="12.0" height="12.0" fill="black" stroke-width="0"/>
<rect x="284.3" y="204.3" width="12.0" height="12.0" fill="black" stroke-width="0"/>
<rect x="274.3" y="214.3" width="12.0" height="12.0" fill="black" stroke-width="0"/>
<rect x="264.3" y="224.3" width="12.0" height="12.0" fill="black" stroke-width="0"/>
<rect x="254.3" y="234.3" width="12.0" height="12.0" fill="black" stroke-width="0"/>
<rect x="184.3" y="304.3" width="12.0" height="12.0" fill="black" stroke-width="0"/>
<rect x="164.3" y="324.3" width="12.0" height="12.0" fill="black" stroke-width="0"/>
<rect x="154.3" y="334.3" width="12.0" height="12.0" fill="black" stroke-width="0"/>
<rect x="144.3" y="344.3" width="12.0" height="12.0" fill="black" stroke-width="0"/>
<rect x="124.3" y="364.3" width="12.0" height="12.0" fill="black" stroke-width="0"/>
<rect x="374.3" y="134.3" width="12.0" height="12.0" fill="black" stroke-width="0"/>
<rect x="314.3" y="194.3" width="12.0" height="12.0" fill="black" stroke-width="0"/>
<rect x="294.3" y="214.3" width="12.0" height="12.0" fill="black" stroke-width="0"/>
<rect x="264.3" y="244.3" width="12.0" height="12.0" fill="black" stroke-width="0"/>
<rect x="214.3" y="294.3" width="12.0" height="12.0" fill="black" stroke-width="0"/>
<rect x="194.3" y="314.3" width="12.0" height="12.0" fill="black" stroke-width="0"/>
<rect x="134.3" y="374.3" width="12.0" height="12.0" fill="black" stroke-width="0"/>
<rect x="384.3" y="144.3" width="12.0" height="12.0" fill="black" stroke-width="0"/>
<rect x="374.3" y="154.3" width="12.0" height="12.0" fill="black" stroke-width="0"/>
<rect x="364.3" y="164.3" width="12.0" height="12.0" fill="black" stroke-width="0"/>
<rect x="354.3" y="174.3" width="12.0" height="12.0" fill="black" stroke-width="0"/>
<rect x="344.3" y="184.3" width="12.0" height="12.0" fill="black" stroke-width="0"/>
<rect x="334.3" y="194.3" width="12.0" height="12.0" fill="black" stroke-width="0"/>
<rect x="324.3" y="204.3" width="12.0" height="12.0" fill="black" stroke-width="0"/>
<rect x="304.3" y="224.3" width="12.0" height="12.0" fill="black" stroke-width="0"/>
<rect x="284.3" y="244.3" width="12.0" height="12.0" fill="black" stroke-width="0"/>
<rect x="264.3" y="264.3" width="12.0" height="12.0" fill="black" stroke-width="0"/>
<rect x="244.3" y="284.3" width="12.0" height="12.0" fill="black" stroke-width="0"/>
<rect x="224.3" y="304.3" width="12.0" height="12.0" fill="black" stroke-width="0"/>
<rect x="204.3" y="324.3" width="12.0" height="12.0" fill="black" stroke-width="0"/>
<rect x="194.3" y="334.3" width="12.0" height="12.0" fill="black" stroke-width="0"/>
<rect x="184.3" y="344.3" width="12.0" height="12.0" fill="black" stroke-width="0"/>
<rect x="174.3" y="354.3" width="12.0" height="12.0" fill="black" stroke-width="0"/>
<rect x="164.3" y="364.3" width="12.0" height="12.0" fill="black" stroke-width="0"/>
<rect x="154.3" y="374.3" width="12.0" height="12.0" fill="black" stroke-width="0"/>
<rect x="144.3" y="384.3" width="12.0" height="12.0" fill="black" stroke-width="0"/>
<rect x="314.3" y="234.3" width="12.0" height="12.0" fill="black" stroke-width="0"/>
<rect x="294.3" y="254.3" width="12.0" height="12.0" fill="black" stroke-width="0"/>
<rect x="284.3" y="264.3" width="12.0" height="12.0" fill="black" stroke-width="0"/>
<rect x="274.3" y="274.3" width="12.0" height="12.0" fill="black" stroke-width="0"/>
<rect x="254.3" y="294.3" width="12.0" height="12.0" fill="black" stroke-width="0"/>
<rect x="244.3" y="304.3" width="12.0" height="12.0" fill="black" stroke-width="0"/>
<rect x="234.3" y="314.3" width="12.0" height="12.0" fill="black" stroke-width="0"/>
<rect x="404.3" y="164.3" width="12.0" height="12.0" fill="black" stroke-width="0"/>
<rect x="394.3" y="174.3" width="12.0" height="12.0" fill="black" stroke-width="0"/>
<rect x="384.3" y="184.3" width="12.0" height="12.0" fill="black" stroke-width="0"/>
<rect x="354.3" y="214.3" width="12.0" height="12.0" fill="black" stroke-width="0"/>
<rect x="344.3" y="224.3" width="12.0" height="12.0" fill="black" stroke-width="0"/>
<rect x="324.3" y="244.3" width="12.0" height="12.0" fill="black" stroke-width="0"/>
<rect x="314.3" y="254.3" width="12.0" height="12.0" fill="black" stroke-width="0"/>
<rect x="304.3" y="264.3" width="12.0" height="12.0" fill="black" stroke-width="0"/>
<rect x="284.3" y="284.3" width="12.0" height="12.0" fill="black" stroke-width="0"/>
<rect x="244.3" y="324.3" width="12.0" height="12.0" fill="black" stroke-width="0"/>
<rect x="234.3" y="334.3" width="12.0" height="12.0" fill="black" stroke-width="0"/>
<rect x="224.3" y="344.3" width="12.0" height="12.0" fill="black" stroke-width="0"/>
<rect x="214.3" y="354.3" width="12.0" height="12.0" fill="black" stroke-width="0"/>
<rect x="204.3" y="364.3" width="12.0" height="12.0" fill="black" stroke-width="0"/>
<rect x="174.3" y="394.3" width="12.0" height="12.0" fill="black" stroke-width="0"/>
<rect x="164.3" y="404.3" width="12.0" height="12.0" fill="black" stroke-width="0"/>
<rect x="414.3" y="174.3" width="12.0" height="12.0" fill="black" stroke-width="0"/>
<rect x="404.3" y="184.3" width="12.0" height="12.0" fill="black" stroke-width="0"/>
<rect x="394.3" y="194.3" width="12.0" height="12.0" fill="black" stroke-width="0"/>
<rect x="384.3" y="204.3" width="12.0" height="12.0" fill="black" stroke-width="0"/>
<rect x="374.3" y="214.3" width="12.0" height="12.0" fill="black" stroke-width="0"/>
<rect x="324.3" y="264.3" width="12.0" height="12.0" fill="black" stroke-width="0"/>
<rect x="314.3" y="274.3" width="12.0" height="12.0" fill="black" stroke-width="0"/>
<rect x="284.3" y="304.3" width="12.0" height="12.0" fill="black" stroke-width="0"/>
<rect x="264.3" y="324.3" width="12.0" height="12.0" fill="black" stroke-width="0"/>
<rect x="244.3" y="344.3" width="12.0" height="12.0" fill="black" stroke-width="0"/>
<rect x="234.3" y="354.3" width="12.0" height="12.0" fill="black" stroke-width="0"/>
<rect x="224.3" y="364.3" width="12.0" height="12.0" fill="black" stroke-width="0"/>
<rect x="204.3" y="384.3" width="12.0" height="12.0" fill="black" stroke-width="0"/>
<rect x="184.3" y="404.3" width="12.0" height="12.0" fill="black" stroke-width="0"/>
<rect x="174.3" y="414.3" width="12.0" height="12.0" fill="black" stroke-width="0"/>
<rect x="414.3" y="194.3" width="12.0" height="12.0" fill="black" stroke-width="0"/>
<rect x="384.3" y="224.3" width="12.0" height="12.0" fill="black" stroke-width="0"/>
<rect x="364.3" y="244.3" width="12.0" height="12.0" fill="black" stroke-width="0"/>
<rect x="344.3" y="264.3" width="12.0" height="12.0" fill="black" stroke-width="0"/>
<rect x="314.3" y="294.3" width="12.0" height="12.0" fill="black" stroke-width="0"/>
<rect x="274.3" y="334.3" width="12.0" height="12.0" fill="black" stroke-width="0"/>
<rect x="244.3" y="364.3" width="12.0" height="12.0" fill="black" stroke-width="0"/>
<rect x="214.3" y="394.3" width="12.0" height="12.0" fill="black" stroke-width="0"/>
<rect x="204.3" y="404.3" width="12.0" height="12.0" fill="black" stroke-width="0"/>
<rect x="184.3" y="424.3" width="12.0" height="12.0" fill="black" stroke-width="0"/>
<rect x="424.3" y="204.3" width="12.0" height="12.0" fill="black" stroke-width="0"/>
<rect x="404.3" y="224.3" width="12.0" height="12.0" fill="black" stroke-width="0"/>
<rect x="394.3" y="234.3" width="12.0" height="12.0" fill="black" stroke-width="0"/>
<rect x="384.3" y="244.3" width="12.0" height="12.0" fill="black" stroke-width="0"/>
<rect x="354.3" y="274.3" width="12.0" height="12.0" fill="black" stroke-width="0"/>
<rect x="344.3" y="284.3" width="12.0" height="12.0" fill="black" stroke-width="0"/>
<rect x="324.3" y="304.3" width="12.0" height="12.0" fill="black" stroke-width="0"/>
<rect x="274.3" y="354.3" width="12.0" height="12.0" fill="black" stroke-width="0"/>
<rect x="264.3" y="364.3" width="12.0" height="12.0" fill="black" stroke-width="0"/>
<rect x="244.3" y="384.3" width="12.0" height="12.0" fill="black" stroke-width="0"/>
<rect x="234.3" y="394.3" width="12.0" height="12.0" fill="black" stroke-width="0"/>
<rect x="224.3" y="404.3" width="12.0" height="12.0" fill="black" stroke-width="0"/>
<rect x="404.3" y="244.3" width="12.0" height="12.0" fill="black" stroke-width="0"/>
<rect x="384.3" y="264.3" width="12.0" height="12.0" fill="black" stroke-width="0"/>
<rect x="374.3" y="274.3" width="12.0" height="12.0" fill="black" stroke-width="0"/>
<rect x="354.3" y="294.3" width="12.0" height="12.0" fill="black" stroke-width="0"/>
<rect x="334.3" y="314.3" width="12.0" height="12.0" fill="black" stroke-width="0"/>
<rect x="294.3" y="354.3" width="12.0" height="12.0" fill="black" stroke-width="0"/>
<rect x="284.3" y="364.3" width="12.0" height="12.0" fill="black" stroke-width="0"/>
<rect x="264.3" y="384.3" width="12.0" height="12.0" fill="black" stroke-width="0"/>
<rect x="254.3" y="394.3" width="12.0" height="12.0" fill="black" stroke-width="0"/>
<rect x="204.3" y="444.3" width="12.0" height="12.0" fill="black" stroke-width="0"/>
<rect x="434.3" y="234.3" width="12.0" height="12.0" fill="black" stroke-width="0"/>
<rect x="424.3" y="244.3" width="12.0" height="12.0" fill="black" stroke-width="0"/>
<rect x="404.3" y="264.3" width="12.0" height="12.0" fill="black" stroke-width="0"/>
<rect x="374.3" y="294.3" width="12.0" height="12.0" fill="black" stroke-width="0"/>
<rect x="364.3" y="304.3" width="12.0" height="12.0" fill="black" stroke-width="0"/>
<rect x="344.3" y="324.3" width="12.0" height="12.0" fill="black" stroke-width="0"/>
<rect x="334.3" y="334.3" width="12.0" height="12.0" fill="black" stroke-width="0"/>
<rect x="314.3" y="354.3" width="12.0" height="12.0" fill="black" stroke-width="0"/>
<rect x="304.3" y="364.3" width="12.0" height="12.0" fill="black" stroke-width="0"/>
<rect x="294.3" y="374.3" width="12.0" height="12.0" fill="black" stroke-width="0"/>
<rect x="284.3" y="384.3" width="12.0" height="12.0" fill="black" stroke-width="0"/>
<rect x="274.3" y="394.3" width="12.0" height="12.0" fill="black" stroke-width="0"/>
<rect x="264.3" y="404.3" width="12.0" height="12.0" fill="black" stroke-width="0"/>
<rect x="224.3" y="444.3" width="12.0" height="12.0" fill="black" stroke-width="0"/>
<rect x="214.3" y="454.3" width="12.0" height="12.0" fill="black" stroke-width="0"/>
<rect x="464.3" y="224.3" width="12.0" height="12.0" fill="black" stroke-width="0"/>
<rect x="454.3" y="234.3" width="12.0" height="12.0" fill="black" stroke-width="0"/>
<rect x="444.3" y="244.3" width="12.0" height="12.0" fill="black" stroke-width="0"/>
<rect x="434.3" y="254.3" width="12.0" height="12.0" fill="black" stroke-width="0"/>
<rect x="404.3" y="284.3" width="12.0" height="12.0" fill="black" stroke-width="0"/>
<rect x="384.3" y="304.3" width="12.0" height="12.0" fill="black" stroke-width="0"/>
<rect x="374.3" y="314.3" width="12.0" height="12.0" fill="black" stroke-width="0"/>
<rect x="364.3" y="324.3" width="12.0" height="12.0" fill="black" stroke-width="0"/>
<rect x="354.3" y="334.3" width="12.0" height="12.0" fill="black" stroke-width="0"/>
<rect x="334.3" y="354.3" width="12.0" height="12.0" fill="black" stroke-width="0"/>
<rect x="324.3" y="364.3" width="12.0" height="12.0" fill="black" stroke-width="0"/>
<rect x="314.3" y="374.3" width="12.0" height="12.0" fill="black" stroke-width="0"/>
<rect x="304.3" y="384.3" width="12.0" height="12.0" fill="black" stroke-width="0"/>
<rect x="284.3" y="404.3" width="12.0" height="12.0" fill="black" stroke-width="0"/>
<rect x="264.3" y="424.3" width="12.0" height="12.0" fill="black" stroke-width="0"/>
<rect x="254.3" y="434.3" width="12.0" height="12.0" fill="black" stroke-width="0"/>
<rect x="244.3" y="444.3" width="12.0" height="12.0" fill="black" stroke-width="0"/>
<rect x="224.3" y="464.3" width="12.0" height="12.0" fill="black" stroke-width="0"/>
<rect x="444.3" y="264.3" width="12.0" height="12.0" fill="black" stroke-width="0"/>
<rect x="434.3" y="274.3" width="12.0" height="12.0" fill="black" stroke-width="0"/>
<rect x="404.3" y="304.3" width="12.0" height="12.0" fill="black" stroke-width="0"/>
<rect x="384.3" y="324.3" width="12.0" height="12.0" fill="black" stroke-width="0"/>
<rect x="374.3" y="334.3" width="12.0" height="12.0" fill="black" stroke-width="0"/>
<rect x="364.3" y="344.3" width="12.0" height="12.0" fill="black" stroke-width="0"/>
<rect x="334.3" y="374.3" width="12.0" height="12.0" fill="black" stroke-width="0"/>
<rect x="324.3" y="384.3" width="12.0" height="12.0" fill="black" stroke-width="0"/>
<rect x="274.3" y="434.3" width="12.0" height="12.0" fill="black" stroke-width="0"/>
<rect x="484.3" y="244.3" width="12.0" height="12.0" fill="black" stroke-width="0"/>
<rect x="474.3" y="254.3" width="12.0" height="12.0" fill="black" stroke-width="0"/>
<rect x="464.3" y="264.3" width="12.0" height="12.0" fill="black" stroke-width="0"/>
<rect x="424.3" y="304.3" width="12.0" height="12.0" fill="black" stroke-width="0"/>
<rect x="414.3" y="314.3" width="12.0" height="12.0" fill="black" stroke-width="0"/>
<rect x="404.3" y="324.3" width="12.0" height="12.0" fill="black" stroke-width="0"/>
<rect x="374.3" y="354.3" width="12.0" height="12.0" fill="black" stroke-width="0"/>
<rect x="334.3" y="394.3" width="12.0" height="12.0" fill="black" stroke-width="0"/>
<rect x="324.3" y="404.3" width="12.0" height="12.0" fill="black" stroke-width="0"/>
<rect x="314.3" y="414.3" width="12.0" height="12.0" fill="black" stroke-width="0"/>
<rect x="304.3" y="424.3" width="12.0" height="12.0" fill="black" stroke-width="0"/>
<rect x="294.3" y="434.3" width="12.0" height="12.0" fill="black" stroke-width="0"/>
<rect x="284.3" y="444.3" width="12.0" height="12.0" fill="black" stroke-width="0"/>
<rect x="254.3" y="474.3" width="12.0" height="12.0" fill="black" stroke-width="0"/>
<rect x="414.3" y="334.3" width="12.0" height="12.0" fill="black" stroke-width="0"/>
<rect x="394.3" y="354.3" width="12.0" height="12.0" fill="black" stroke-width="0"/>
<rect x="384.3" y="364.3" width="12.0" height="12.0" fill="black" stroke-width="0"/>
<rect x="374.3" y="374.3" width="12.0" height="12.0" fill="black" stroke-width="0"/>
<rect x="354.3" y="394.3" width="12.0" height="12.0" fill="black" stroke-width="0"/>
<rect x="334.3" y="414.3" width="12.0" height="12.0" fill="black" stroke-width="0"/>
<rect x="294.3" y="454.3" width="12.0" height="12.0" fill="black" stroke-width="0"/>
<rect x="274.3" y="474.3" width="12.0" height="12.0" fill="black" stroke-width="0"/>
<rect x="254.3" y="494.3" width="12.0" height="12.0" fill="black" stroke-width="0"/>
<rect x="504.3" y="264.3" width="12.0" height="12.0" fill="black" stroke-width="0"/>
<rect x="494.3" y="274.3" width="12.0" height="12.0" fill="black" stroke-width="0"/>
<rect x="484.3" y="284.3" width="12.0" height="12.0" fill="black" stroke-width="0"/>
<rect x="474.3" y="294.3" width="12.0" height="12.0" fill="black" stroke-width="0"/>
<rect x="464.3" y="304.3" width="12.0" height="12.0" fill="black" stroke-width="0"/>
<rect x="454.3" y="314.3" width="12.0" height="12.0" fill="black" stroke-width="0"/>
<rect x="444.3" y="324.3" width="12.0" height="12.0" fill="black" stroke-width="0"/>
<rect x="414.3" y="354.3" width="12.0" height="12.0" fill="black" stroke-width="0"/>
<rect x="404.3" y="364.3" width="12.0" height="12.0" fill="black" stroke-width="0"/>
<rect x="394.3" y="374.3" width="12.0" height="12.0" fill="black" stroke-width="0"/>
<rect x="364.3" y="404.3" width="12.0" height="12.0" fill="black" stroke-width="0"/>
<rect x="344.3" y="424.3" width="12.0" height="12.0" fill="black" stroke-width="0"/>
<rect x="324.3" y="444.3" width="12.0" height="12.0" fill="black" stroke-width="0"/>
<rect x="304.3" y="464.3" width="12.0" height="12.0" fill="black" stroke-width="0"/>
<rect x="294.3" y="474.3" width="12.0" height="12.0" fill="black" stroke-width="0"/>
<rect x="264.3" y="504.3" width="12.0" height="12.0" fill="black" stroke-width="0"/>
<rect x="514.3" y="274.3" width="12.0" height="12.0" fill="black" stroke-width="0"/>
<rect x="454.3" y="334.3" width="12.0" height="12.0" fill="black" stroke-width="0"/>
<rect x="434.3" y="354.3" width="12.0" height="12.0" fill="black" stroke-width="0"/>
<rect x="424.3" y="364.3" width="12.0" height="12.0" fill="black" stroke-width="0"/>
<rect x="404.3" y="384.3" width="12.0" height="12.0" fill="black" stroke-width="0"/>
<rect x="374.3" y="414.3" width="12.0" height="12.0" fill="black" stroke-width="0"/>
<rect x="364.3" y="424.3" width="12.0" height="12.0" fill="black" stroke-width="0"/>
<rect x="354.3" y="434.3" width="12.0" height="12.0" fill="black" stroke-width="0"/>
<rect x="314.3" y="474.3" width="12.0" height="12.0" fill="black" stroke-width="0"/>
<rect x="284.3" y="504.3" width="12.0" height="12.0" fill="black" stroke-width="0"/>
<rect x="274.3" y="514.3" width="12.0" height="12.0" fill="black" stroke-width="0"/>
<rect x="524.3" y="284.3" width="12.0" height="12.0" fill="black" stroke-width="0"/>
<rect x="504.3" y="304.3" width="12.0" height="12.0" fill="black" stroke-width="0"/>
<rect x="494.3" y="314.3" width="12.0" height="12.0" fill="black" stroke-width="0"/>
<rect x="484.3" y="324.3" width="12.0" height="12.0" fill="black" stroke-width="0"/>
<rect x="464.3" y="344.3" width="12.0" height="12.0" fill="black" stroke-width="0"/>
<rect x="434.3" y="374.3" width="12.0" height="12.0" fill="black" stroke-width="0"/>
<rect x="414.3" y="394.3" width="12.0" height="12.0" fill="black" stroke-width="0"/>
<rect x="394.3" y="414.3" width="12.0" height="12.0" fill="black" stroke-width="0"/>
<rect x="374.3" y="434.3" width="12.0" height="12.0" fill="black" stroke-width="0"/>
<rect x="364.3" y="444.3" width="12.0" height="12.0" fill="black" stroke-width="0"/>
<rect x="354.3" y="454.3" width="12.0" height="12.0" fill="black" stroke-width="0"/>
<rect x="344.3" y="464.3" width="12.0" height="12.0" fill="black" stroke-width="0"/>
<rect x="334.3" y="474.3" width="12.0" height="12.0" fill="black" stroke-width="0"/>
<rect x="324.3" y="484.3" width="12.0" height="12.0" fill="black" stroke-width="0"/>
<rect x="314.3" y="494.3" width="12.0" height="12.0" fill="black" stroke-width="0"/>
<rect x="294.3" y="514.3" width="12.0" height="12.0" fill="black" stroke-width="0"/>
<rect x="534.3" y="294.3" width="12.0" height="12.0" fill="black" stroke-width="0"/>
<rect x="514.3" y="314.3" width="12.0" height="12.0" fill="black" stroke-width="0"/>
<rect x="504.3" y="324.3" width="12.0" height="12.0" fill="black" stroke-width="0"/>
<rect x="494.3" y="334.3" width="12.0" height="12.0" fill="black" stroke-width="0"/>
<rect x="474.3" y="354.3" width="12.0" height="12.0" fill="black" stroke-width="0"/>
<rect x="424.3" y="404.3" width="12.0" height="12.0" fill="black" stroke-width="0"/>
<rect x="394.3" y="434.3" width="12.0" height="12.0" fill="black" stroke-width="0"/>
<rect x="374.3" y="454.3" width="12.0" height="12.0" fill="black" stroke-width="0"/>
<rect x="364.3" y="464.3" width="12.0" height="12.0" fill="black" stroke-width="0"/>
<rect x="344.3" y="484.3" width="12.0" height="12.0" fill="black" stroke-width="0"/>
<rect x="334.3" y="494.3" width="12.0" height="12.0" fill="black" stroke-width="0"/>
<rect x="324.3" y="504.3" width="12.0" height="12.0" fill="black" stroke-width="0"/>
<rect x="314.3" y="514.3" width="12.0" height="12.0" fill="black" stroke-width="0"/>
<rect x="304.3" y="524.3" width="12.0" height="12.0" fill="black" stroke-width="0"/>
<rect x="544.3" y="304.3" width="12.0" height="12.0" fill="black" stroke-width="0"/>
<rect x="524.3" y="324.3" width="12.0" height="12.0" fill="black" stroke-width="0"/>
<rect x="514.3" y="334.3" width="12.0" height="12.0" fill="black" stroke-width="0"/>
<rect x="504.3" y="344.3" width="12.0" height="12.0" fill="black" stroke-width="0"/>
<rect x="484.3" y="364.3" width="12.0" height="12.0" fill="black" stroke-width="0"/>
<rect x="464.3" y="384.3" width="12.0" height="12.0" fill="black" stroke-width="0"/>
<rect x="454.3" y="394.3" width="12.0" height="12.0" fill="black" stroke-width="0"/>
<rect x="444.3" y="404.3" width="12.0" height="12.0" fill="black" stroke-width="0"/>
<rect x="434.3" y="414.3" width="12.0" height="12.0" fill="black" stroke-width="0"/>
<rect x="414.3" y="434.3" width="12.0" height="12.0" fill="black" stroke-width="0"/>
<rect x="344.3" y="504.3" width="12.0" height="12.0" fill="black" stroke-width="0"/>
<rect x="314.3" y="534.3" width="12.0" height="12.0" fill="black" stroke-width="0"/>
<rect x="304.3" y="544.3" width="12.0" height="12.0" fill="black" stroke-width="0"/>
<rect x="554.3" y="314.3" width="12.0" height="12.0" fill="black" stroke-width="0"/>
<rect x="494.3" y="374.3" width="12.0" height="12.0" fill="black" stroke-width="0"/>
<rect x="474.3" y="394.3" width="12.0" height="12.0" fill="black" stroke-width="0"/>
<rect x="454.3" y="414.3" width="12.0" height="12.0" fill="black" stroke-width="0"/>
<rect x="434.3" y="434.3" width="12.0" height="12.0" fill="black" stroke-width="0"/>
<rect x="394.3" y="474.3" width="12.0" height="12.0" fill="black" stroke-width="0"/>
<rect x="384.3" y="484.3" width="12.0" height="12.0" fill="black" stroke-width="0"/>
<rect x="364.3" y="504.3" width="12.0" height="12.0" fill="black" stroke-width="0"/>
<rect x="354.3" y="514.3" width="12.0" height="12.0" fill="black" stroke-width="0"/>
<rect x="564.3" y="324.3" width="12.0" height="12.0" fill="black" stroke-width="0"/>
<rect x="554.3" y="334.3" width="12.0" height="12.0" fill="black" stroke-width="0"/>
<rect x="544.3" y="344.3" width="12.0" height="12.0" fill="black" stroke-width="0"/>
<rect x="534.3" y="354.3" width="12.0" height="12.0" fill="black" stroke-width="0"/>
<rect x="524.3" y="364.3" width="12.0" height="12.0" fill="black" stroke-width="0"/>
<rect x="514.3" y="374.3" width="12.0" height="12.0" fill="black" stroke-width="0"/>
<rect x="504.3" y="384.3" width="12.0" height="12.0" fill="black" stroke-width="0"/>
<rect x="484.3" y="404.3" width="12.0" height="12.0" fill="black" stroke-width="0"/>
<rect x="464.3" y="424.3" width="12.0" height="12.0" fill="black" stroke-width="0"/>
<rect x="454.3" y="434.3" width="12.0" height="12.0" fill="black" stroke-width="0"/>
<rect x="444.3" y="444.3" width="12.0" height="12.0" fill="black" stroke-width="0"/>
<rect x="434.3" y="454.3" width="12.0" height="12.0" fill="black" stroke-width="0"/>
<rect x="414.3" y="474.3" width="12.0" height="12.0" fill="black" stroke-width="0"/>
<rect x="404.3" y="484.3" width="12.0" height="12.0" fill="black" stroke-width="0"/>
<rect x="384.3" y="504.3" width="12.0" height="12.0" fill="black" stroke-width="0"/>
<rect x="354.3" y="534.3" width="12.0" height="12.0" fill="black" stroke-width="0"/>
<rect x="324.3" y="564.3" width="12.0" height="12.0" fill="black" stroke-width="0"/>
<rect x="323.3" y="0.0" width="14.1" height="14.1" fill="black" stroke-width="0"/>
<rect x="309.3" y="14.1" width="14.1" height="14.1" fill="black" stroke-width="0"/>
<rect x="323.3" y="14.1" width="14.1" height="14.1" fill="black" stroke-width="0"/>
<rect x="337.4" y="14.1" width="14.1" height="14.1" fill="black" stroke-width="0"/>
<rect x="295.2" y="28.1" width="14.1" height="14.1" fill="black" stroke-width="0"/>
<rect x="309.3" y="28.1" width="14.1" height="14.1" fill="black" stroke-width="0"/>
<rect x="337.4" y="28.1" width="14.1" height="14.1" fill="black" stroke-width="0"/>
<rect x="351.4" y="28.1" width="14.1" height="14.1" fill="black" stroke-width="0"/>
<rect x="309.3" y="42.2" width="14.1" height="14.1" fill="black" stroke-width="0"/>
<rect x="323.3" y="42.2" width="14.1" height="14.1" fill="black" stroke-width="0"/>
<rect x="337.4" y="42.2" width="14.1" height="14.1" fill="black" stroke-width="0"/>
<rect x="323.3" y="56.2" width="14.1" height="14.1" fill="black" stroke-width="0"/>
<rect x="154.6" y="84.3" width="14.1" height="14.1" fill="black" stroke-width="0"/>
<rect x="506.1" y="84.3" width="14.1" height="14.1" fill="black" stroke-width="0"/>
<rect x="112.5" y="98.4" width="14.1" height="14.1" fill="black" stroke-width="0"/>
<rect x="154.6" y="98.4" width="14.1" height="14.1" fill="black" stroke-width="0"/>
<rect x="168.7" y="98.4" width="14.1" height="14.1" fill="black" stroke-width="0"/>
<rect x="492.0" y="98.4" width="14.1" height="14.1" fill="black" stroke-width="0"/>
<rect x="506.1" y="98.4" width="14.1" height="14.1" fill="black" stroke-width="0"/>
<rect x="548.2" y="98.4" width="14.1" height="14.1" fill="black" stroke-width="0"/>
<rect x="98.4" y="112.5" width="14.1" height="14.1" fill="black" stroke-width="0"/>
<rect x="112.5" y="112.5" width="14.1" height="14.1" fill="black" stroke-width="0"/>
<rect x="126.5" y="112.5" width="14.1" height="14.1" fill="black" stroke-width="0"/>
<rect x="154.6" y="112.5" width="14.1" height="14.1" fill="black" stroke-width="0"/>
<rect x="168.7" y="112.5" width="14.1" height="14.1" fill="black" stroke-width="0"/>
<rect x="182.7" y="112.5" width="14.1" height="14.1" fill="black" stroke-width="0"/>
<rect x="477.9" y="112.5" width="14.1" height="14.1" fill="black" stroke-width="0"/>
<rect x="492.0" y="112.5" width="14.1" height="14.1" fill="black" stroke-width="0"/>
<rect x="506.1" y="112.5" width="14.1" height="14.1" fill="black" stroke-width="0"/>
<rect x="534.2" y="112.5" width="14.1" height="14.1" fill="black" stroke-width="0"/>
<rect x="548.2" y="112.5" width="14.1" height="14.1" fill="black" stroke-width="0"/>
<rect x="562.3" y="112.5" width="14.1" height="14.1" fill="black" stroke-width="0"/>
<rect x="112.5" y="126.5" width="14.1" height="14.1" fill="black" stroke-width="0"/>
<rect x="126.5" y="126.5" width="14.1" height="14.1" fill="black" stroke-width="0"/>
<rect x="154.6" y="126.5" width="14.1" height="14.1" fill="black" stroke-width="0"/>
<rect x="168.7" y="126.5" width="14.1" height="14.1" fill="black" stroke-width="0"/>
<rect x="182.7" y="126.5" width="14.1" height="14.1" fill="black" stroke-width="0"/>
<rect x="196.8" y="126.5" width="14.1" height="14.1" fill="black" stroke-width="0"/>
<rect x="463.9" y="126.5" width="14.1" height="14.1" fill="black" stroke-width="0"/>
<rect x="477.9" y="126.5" width="14.1" height="14.1" fill="black" stroke-width="0"/>
<rect x="492.0" y="126.5" width="14.1" height="14.1" fill="black" stroke-width="0"/>
<rect x="506.1" y="126.5" width="14.1" height="14.1" fill="black" stroke-width="0"/>
<rect x="534.2" y="126.5" width="14.1" height="14.1" fill="black" stroke-width="0"/>
<rect x="548.2" y="126.5" width="14.1" height="14.1" fill="black" stroke-width="0"/>
<rect x="154.6" y="140.6" width="14.1" height="14.1" fill="black" stroke-width="0"/>
<rect x="168.7" y="140.6" width="14.1" height="14.1" fill="black" stroke-width="0"/>
<rect x="182.7" y="140.6" width="14.1" height="14.1" fill="black" stroke-width="0"/>
<rect x="196.8" y="140.6" width="14.1" height="14.1" fill="black" stroke-width="0"/>
<rect x="463.9" y="140.6" width="14.1" height="14.1" fill="black" stroke-width="0"/>
<rect x="477.9" y="140.6" width="14.1" height="14.1" fill="black" stroke-width="0"/>
<rect x="492.0" y="140.6" width="14.1" height="14.1" fill="black" stroke-width="0"/>
<rect x="506.1" y="140.6" width="14.1" height="14.1" fill="black" stroke-width="0"/>
<rect x="84.3" y="154.6" width="14.1" height="14.1" fill="black" stroke-width="0"/>
<rect x="98.4" y="154.6" width="14.1" height="14.1" fill="black" stroke-width="0"/>
<rect x="112.5" y="154.6" width="14.1" height="14.1" fill="black" stroke-width="0"/>
<rect x="126.5" y="154.6" width="14.1" height="14.1" fill="black" stroke-width="0"/>
<rect x="140.6" y="154.6" width="14.1" height="14.1" fill="black" stroke-width="0"/>
<rect x="168.7" y="154.6" width="14.1" height="14.1" fill="black" stroke-width="0"/>
<rect x="182.7" y="154.6" width="14.1" height="14.1" fill="black" stroke-width="0"/>
<rect x="196.8" y="154.6" width="14.1" height="14.1" fill="black" stroke-width="0"/>
<rect x="463.9" y="154.6" width="14.1" height="14.1" fill="black" stroke-width="0"/>
<rect x="477.9" y="154.6" width="14.1" height="14.1" fill="black" stroke-width="0"/>
<rect x="492.0" y="154.6" width="14.1" height="14.1" fill="black" stroke-width="0"/>
<rect x="520.1" y="154.6" width="14.1" height="14.1" fill="black" stroke-width="0"/>
<rect x="534.2" y="154.6" width="14.1" height="14.1" fill="black" stroke-width="0"/>
<rect x="548.2" y="154.6" width="14.1" height="14.1" fill="black" stroke-width="0"/>
<rect x="562.3" y="154.6" width="14.1" height="14.1" fill="black" stroke-width="0"/>
<rect x="576.3" y="154.6" width="14.1" height="14.1" fill="black" stroke-width="0"/>
<rect x="98.4" y="168.7" width="14.1" height="14.1" fill="black" stroke-width="0"/>
<rect x="112.5" y="168.7" width="14.1" height="14.1" fill="black" stroke-width="0"/>
<rect x="126.5" y="168.7" width="14.1" height="14.1" fill="black" stroke-width="0"/>
<rect x="140.6" y="168.7" width="14.1" height="14.1" fill="black" stroke-width="0"/>
<rect x="154.6" y="168.7" width="14.1" height="14.1" fill="black" stroke-width="0"/>
<rect x="182.7" y="168.7" width="14.1" height="14.1" fill="black" stroke-width="0"/>
<rect x="196.8" y="168.7" width="14.1" height="14.1" fill="black" stroke-width="0"/>
<rect x="463.9" y="168.7" width="14.1" height="14.1" fill="black" stroke-width="0"/>
<rect x="477.9" y="168.7" width="14.1" height="14.1" fill="black" stroke-width="0"/>
<rect x="506.1" y="168.7" width="14.1" height="14.1" fill="black" stroke-width="0"/>
<rect x="520.1" y="168.7" width="14.1" height="14.1" fill="black" stroke-width="0"/>
<rect x="534.2" y="168.7" width="14.1" height="14.1" fill="black" stroke-width="0"/>
<rect x="548.2" y="168.7" width="14.1" height="14.1" fill="black" stroke-width="0"/>
<rect x="562.3" y="168.7" width="14.1" height="14.1" fill="black" stroke-width="0"/>
<rect x="112.5" y="182.7" width="14.1" height="14.1" fill="black" stroke-width="0"/>
<rect x="126.5" y="182.7" width="14.1" height="14.1" fill="black" stroke-width="0"/>
<rect x="140.6" y="182.7" width="14.1" height="14.1" fill="black" stroke-width="0"/>
<rect x="154.6" y="182.7" width="14.1" height="14.1" fill="black" stroke-width="0"/>
<rect x="168.7" y="182.7" width="14.1" height="14.1" fill="black" stroke-width="0"/>
<rect x="196.8" y="182.7" width="14.1" height="14.1" fill="black" stroke-width="0"/>
<rect x="463.9" y="182.7" width="14.1" height="14.1" fill="black" stroke-width="0"/>
<rect x="492.0" y="182.7" width="14.1" height="14.1" fill="black" stroke-width="0"/>
<rect x="506.1" y="182.7" width="14.1" height="14.1" fill="black" stroke-width="0"/>
<rect x="520.1" y="182.7" width="14.1" height="14.1" fill="black" stroke-width="0"/>
<rect x="534.2" y="182.7" width="14.1" height="14.1" fill="black" stroke-width="0"/>
<rect x="548.2" y="182.7" width="14.1" height="14.1" fill="black" stroke-width="0"/>
<rect x="126.5" y="196.8" width="14.1" height="14.1" fill="black" stroke-width="0"/>
<rect x="140.6" y="196.8" width="14.1" height="14.1" fill="black" stroke-width="0"/>
<rect x="154.6" y="196.8" width="14.1" height="14.1" fill="black" stroke-width="0"/>
<rect x="168.7" y="196.8" width="14.1" height="14.1" fill="black" stroke-width="0"/>
<rect x="182.7" y="196.8" width="14.1" height="14.1" fill="black" stroke-width="0"/>
<rect x="477.9" y="196.8" width="14.1" height="14.1" fill="black" stroke-width="0"/>
<rect x="492.0" y="196.8" width="14.1" height="14.1" fill="black" stroke-width="0"/>
<rect x="506.1" y="196.8" width="14.1" height="14.1" fill="black" stroke-width="0"/>
<rect x="520.1" y="196.8" width="14.1" height="14.1" fill="black" stroke-width="0"/>
<rect x="534.2" y="196.8" width="14.1" height="14.1" fill="black" stroke-width="0"/>
<rect x="28.1" y="295.2" width="14.1" height="14.1" fill="black" stroke-width="0"/>
<rect x="618.5" y="295.2" width="14.1" height="14.1" fill="black" stroke-width="0"/>
<rect x="14.1" y="309.3" width="14.1" height="14.1" fill="black" stroke-width="0"/>
<rect x="28.1" y="309.3" width="14.1" height="14.1" fill="black" stroke-width="0"/>
<rect x="42.2" y="309.3" width="14.1" height="14.1" fill="black" stroke-width="0"/>
<rect x="604.5" y="309.3" width="14.1" height="14.1" fill="black" stroke-width="0"/>
<rect x="618.5" y="309.3" width="14.1" height="14.1" fill="black" stroke-width="0"/>
<rect x="632.6" y="309.3" width="14.1" height="14.1" fill="black" stroke-width="0"/>
<rect x="0.0" y="323.3" width="14.1" height="14.1" fill="black" stroke-width="0"/>
<rect x="14.1" y="323.3" width="14.1" height="14.1" fill="black" stroke-width="0"/>
<rect x="42.2" y="323.3" width="14.1" height="14.1" fill="black" stroke-width="0"/>
<rect x="56.2" y="323.3" width="14.1" height="14.1" fill="black" stroke-width="0"/>
<rect x="590.4" y="323.3" width="14.1" height="14.1" fill="black" stroke-width="0"/>
<rect x="604.5" y="323.3" width="14.1" height="14.1" fill="black" stroke-width="0"/>
<rect x="632.6" y="323.3" width="14.1" height="14.1" fill="black" stroke-width="0"/>
<rect x="646.6" y="323.3" width="14.1" height="14.1" fill="black" stroke-width="0"/>
<rect x="14.1" y="337.4" width="14.1" height="14.1" fill="black" stroke-width="0"/>
<rect x="28.1" y="337.4" width="14.1" height="14.1" fill="black" stroke-width="0"/>
<rect x="42.2" y="337.4" width="14.1" height="14.1" fill="black" stroke-width="0"/>
<rect x="604.5" y="337.4" width="14.1" height="14.1" fill="black" stroke-width="0"/>
<rect x="618.5" y="337.4" width="14.1" height="14.1" fill="black" stroke-width="0"/>
<rect x="632.6" y="337.4" width="14.1" height="14.1" fill="black" stroke-width="0"/>
<rect x="28.1" y="351.4" width="14.1" height="14.1" fill="black" stroke-width="0"/>
<rect x="618.5" y="351.4" width="14.1" height="14.1" fill="black" stroke-width="0"/>
<rect x="126.5" y="463.9" width="14.1" height="14.1" fill="black" stroke-width="0"/>
<rect x="140.6" y="463.9" width="14.1" height="14.1" fill="black" stroke-width="0"/>
<rect x="154.6" y="463.9" width="14.1" height="14.1" fill="black" stroke-width="0"/>
<rect x="168.7" y="463.9" width="14.1" height="14.1" fill="black" stroke-width="0"/>
<rect x="182.7" y="463.9" width="14.1" height="14.1" fill="black" stroke-width="0"/>
<rect x="477.9" y="463.9" width="14.1" height="14.1" fill="black" stroke-width="0"/>
<rect x="492.0" y="463.9" width="14.1" height="14.1" fill="black" stroke-width="0"/>
<rect x="506.1" y="463.9" width="14.1" height="14.1" fill="black" stroke-width="0"/>
<rect x="520.1" y="463.9" width="14.1" height="14.1" fill="black" stroke-width="0"/>
<rect x="534.2" y="463.9" width="14.1" height="14.1" fill="black" stroke-width="0"/>
<rect x="112.5" y="477.9" width="14.1" height="14.1" fill="black" stroke-width="0"/>
<rect x="126.5" y="477.9" width="14.1" height="14.1" fill="black" stroke-width="0"/>
<rect x="140.6" y="477.9" width="14.1" height="14.1" fill="black" stroke-width="0"/>
<rect x="154.6" y="477.9" width="14.1" height="14.1" fill="black" stroke-width="0"/>
<rect x="168.7" y="477.9" width="14.1" height="14.1" fill="black" stroke-width="0"/>
<rect x="196.8" y="477.9" width="14.1" height="14.1" fill="black" stroke-width="0"/>
<rect x="463.9" y="477.9" width="14.1" height="14.1" fill="black" stroke-width="0"/>
<rect x="492.0" y="477.9" width="14.1" height="14.1" fill="black" stroke-width="0"/>
<rect x="506.1" y="477.9" width="14.1" height="14.1" fill="black" stroke-width="0"/>
<rect x="520.1" y="477.9" width="14.1" height="14.1" fill="black" stroke-width="0"/>
<rect x="534.2" y="477.9" width="14.1" height="14.1" fill="black" stroke-width="0"/>
<rect x="548.2" y="477.9" width="14.1" height="14.1" fill="black" stroke-width="0"/>
<rect x="98.4" y="492.0" width="14.1" height="14.1" fill="black" stroke-width="0"/>
<rect x="112.5" y="492.0" width="14.1" height="14.1" fill="black" stroke-width="0"/>
<rect x="126.5" y="492.0" width="14.1" height="14.1" fill="black" stroke-width="0"/>
<rect x="140.6" y="492.0" width="14.1" height="14.1" fill="black" stroke-width="0"/>
<rect x="154.6" y="492.0" width="14.1" height="14.1" fill="black" stroke-width="0"/>
<rect x="182.7" y="492.0" width="14.1" height="14.1" fill="black" stroke-width="0"/>
<rect x="196.8" y="492.0" width="14.1" height="14.1" fill="black" stroke-width="0"/>
<rect x="463.9" y="492.0" width="14.1" height="14.1" fill="black" stroke-width="0"/>
<rect x="477.9" y="492.0" width="14.1" height="14.1" fill="black" stroke-width="0"/>
<rect x="506.1" y="492.0" width="14.1" height="14.1" fill="black" stroke-width="0"/>
<rect x="520.1" y="492.0" width="14.1" height="14.1" fill="black" stroke-width="0"/>
<rect x="534.2" y="492.0" width="14.1" height="14.1" fill="black" stroke-width="0"/>
<rect x="548.2" y="492.0" width="14.1" height="14.1" fill="black" stroke-width="0"/>
<rect x="562.3" y="492.0" width="14.1" height="14.1" fill="black" stroke-width="0"/>
<rect x="84.3" y="506.1" width="14.1" height="14.1" fill="black" stroke-width="0"/>
<rect x="98.4" y="506.1" width="14.1" height="14.1" fill="black" stroke-width="0"/>
<rect x="112.5" y="506.1" width="14.1" height="14.1" fill="black" stroke-width="0"/>
<rect x="126.5" y="506.1" width="14.1" height="14.1" fill="black" stroke-width="0"/>
<rect x="140.6" y="506.1" width="14.1" height="14.1" fill="black" stroke-width="0"/>
<rect x="168.7" y="506.1" width="14.1" height="14.1" fill="black" stroke-width="0"/>
<rect x="182.7" y="506.1" width="14.1" height="14.1" fill="black" stroke-width="0"/>
<rect x="196.8" y="506.1" width="14.1" height="14.1" fill="black" stroke-width="0"/>
<rect x="463.9" y="506.1" width="14.1" height="14.1" fill="black" stroke-width="0"/>
<rect x="477.9" y="506.1" width="14.1" height="14.1" fill="black" stroke-width="0"/>
<rect x="492.0" y="506.1" width="14.1" height="14.1" fill="black" stroke-width="0"/>
<rect x="520.1" y="506.1" width="14.1" height="14.1" fill="black" stroke-width="0"/>
<rect x="534.2" y="506.1" width="14.1" height="14.1" fill="black" stroke-width="0"/>
<rect x="548.2" y="506.1" width="14.1" height="14.1" fill="black" stroke-width="0"/>
<rect x="562.3" y="506.1" width="14.1" height="14.1" fill="black" stroke-width="0"/>
<rect x="576.3" y="506.1" width="14.1" height="14.1" fill="black" stroke-width="0"/>
<rect x="154.6" y="520.1" width="14.1" height="14.1" fill="black" stroke-width="0"/>
<rect x="168.7" y="520.1" width="14.1" height="14.1" fill="black" stroke-width="0"/>
<rect x="182.7" y="520.1" width="14.1" height="14.1" fill="black" stroke-width="0"/>
<rect x="196.8" y="520.1" width="14.1" height="14.1" fill="black" stroke-width="0"/>
<rect x="463.9" y="520.1" width="14.1" height="14.1" fill="black" stroke-width="0"/>
<rect x="477.9" y="520.1" width="14.1" height="14.1" fill="black" stroke-width="0"/>
<rect x="492.0" y="520.1" width="14.1" height="14.1" fill="black" stroke-width="0"/>
<rect x="506.1" y="520.1" width="14.1" height="14.1" fill="black" stroke-width="0"/>
<rect x="112.5" y="534.2" width="14.1" height="14.1" fill="black" stroke-width="0"/>
<rect x="126.5" y="534.2" width="14.1" height="14.1" fill="black" stroke-width="0"/>
<rect x="154.6" y="534.2" width="14.1" height="14.1" fill="black" stroke-width="0"/>
<rect x="168.7" y="534.2" width="14.1" height="14.1" fill="black" stroke-width="0"/>
<rect x="182.7" y="534.2" width="14.1" height="14.1" fill="black" stroke-width="0"/>
<rect x="196.8" y="534.2" width="14.1" height="14.1" fill="black" stroke-width="0"/>
<rect x="463.9" y="534.2" width="14.1" height="14.1" fill="black" stroke-width="0"/>
<rect x="477.9" y="534.2" width="14.1" height="14.1" fill="black" stroke-width="0"/>
<rect x="492.0" y="534.2" width="14.1" height="14.1" fill="black" stroke-width="0"/>
<rect x="506.1" y="534.2" width="14.1" height="14.1" fill="black" stroke-width="0"/>
<rect x="534.2" y="534.2" width="14.1" height="14.1" fill="black" stroke-width="0"/>
<rect x="548.2" y="534.2" width="14.1" height="14.1" fill="black" stroke-width="0"/>
<rect x="98.4" y="548.2" width="14.1" height="14.1" fill="black" stroke-width="0"/>
<rect x="112.5" y="548.2" width="14.1" height="14.1" fill="black" stroke-width="0"/>
<rect x="126.5" y="548.2" width="14.1" height="14.1" fill="black" stroke-width="0"/>
<rect x="154.6" y="548.2" width="14.1" height="14.1" fill="black" stroke-width="0"/>
<rect x="168.7" y="548.2" width="14.1" height="14.1" fill="black" stroke-width="0"/>
<rect x="182.7" y="548.2" width="14.1" height="14.1" fill="black" stroke-width="0"/>
<rect x="477.9" y="548.2" width="14.1" height="14.1" fill="black" stroke-width="0"/>
<rect x="492.0" y="548.2" width="14.1" height="14.1" fill="black" stroke-width="0"/>
<rect x="506.1" y="548.2" width="14.1" height="14.1" fill="black" stroke-width="0"/>
<rect x="534.2" y="548.2" width="14.1" height="14.1" fill="black" stroke-width="0"/>
<rect x="548.2" y="548.2" width="14.1" height="14.1" fill="black" stroke-width="0"/>
<rect x="562.3" y="548.2" width="14.1" height="14.1" fill="black" stroke-width="0"/>
<rect x="112.5" y="562.3" width="14.1" height="14.1" fill="black" stroke-width="0"/>
<rect x="154.6" y="562.3" width="14.1" height="14.1" fill="black" stroke-width="0"/>
<rect x="168.7" y="562.3" width="14.1" height="14.1" fill="black" stroke-width="0"/>
<rect x="492.0" y="562.3" width="14.1" height="14.1" fill="black" stroke-width="0"/>
<rect x="506.1" y="562.3" width="14.1" height="14.1" fill="black" stroke-width="0"/>
<rect x="548.2" y="562.3" width="14.1" height="14.1" fill="black" stroke-width="0"/>
<rect x="154.6" y="576.3" width="14.1" height="14.1" fill="black" stroke-width="0"/>
<rect x="506.1" y="576.3" width="14.1" height="14.1" fill="black" stroke-width="0"/>
<rect x="323.3" y="590.4" width="14.1" height="14.1" fill="black" stroke-width="0"/>
<rect x="309.3" y="604.5" width="14.1" height="14.1" fill="black" stroke-width="0"/>
<rect x="323.3" y="604.5" width="14.1" height="14.1" fill="black" stroke-width="0"/>
<rect x="337.4" y="604.5" width="14.1" height="14.1" fill="black" stroke-width="0"/>
<rect x="295.2" y="618.5" width="14.1" height="14.1" fill="black" stroke-width="0"/>
<rect x="309.3" y="618.5" width="14.1" height="14.1" fill="black" stroke-width="0"/>
<rect x="337.4" y="618.5" width="14.1" height="14.1" fill="black" stroke-width="0"/>
<rect x="351.4" y="618.5" width="14.1" height="14.1" fill="black" stroke-width="0"/>
<rect x="309.3" y="632.6" width="14.1" height="14.1" fill="black" stroke-width="0"/>
<rect x="323.3" y="632.6" width="14.1" height="14.1" fill="black" stroke-width="0"/>
<rect x="337.4" y="632.6" width="14.1" height="14.1" fill="black" stroke-width="0"/>
<rect x="323.3" y="646.6" width="14.1" height="14.1" fill="black" stroke-width="0"/>
</svg>